# AST/ASF file generated using VICON BodyLanguage
# -----------------------------------------------
:version 1.10
:name VICON
:units
  mass 1.0
  length 0.45
  angle deg
:documentation
   .ast/.asf automatically generated from VICON data using
   VICON BodyBuilder and BodyLanguage model FoxedUp or BRILLIANT.MOD
:root
   order TX TY TZ RX RY RZ
   axis XYZ
   position 0 0 0  
   orientation 0 0 0 
:bonedata
  begin
     id 1 
     name lhipjoint
     direction 0.702568 -0.596508 0.388042 
     length 2.56661 
     axis 0 0 0  XYZ
  end
  begin
     id 2 
     name lfemur
     direction 0.34202 -0.939693 0  
     length 6.58374  
     axis 0 0 20  XYZ
    dof rx ry rz
    limits (-160.0 20.0)
           (-70.0 70.0)
           (-60.0 70.0)
  end
  begin
     id 3 
     name ltibia
     direction 0.34202 -0.939693 0   
     length 6.62538   
     axis 0 0 20   XYZ
    dof rx
    limits (-10.0 170.0)
  end
  begin
     id 4 
     name lfoot
     direction 0.10455 -0.287249 0.952133   
     length 2.26699   
     axis -90 7.62852e-016 20   XYZ
    dof rx rz
    limits (-45.0 90.0)
           (-70.0 20.0)
  end
  begin
     id 5 
     name ltoes
     direction 1.53572e-011 -4.22322e-011 1   
     length 1.12949   
     axis -90 7.62852e-016 20   XYZ
    dof rx
    limits (-90.0 20.0)
  end
  begin
     id 6 
     name rhipjoint
     direction -0.728055 -0.574632 0.373811   
     length 2.66432  
     axis 0 0 0  XYZ 
  end
  begin
     id 7 
     name rfemur
     direction -0.34202 -0.939693 0   
     length 6.66732   
     axis 0 0 -20   XYZ
    dof rx ry rz
    limits (-160.0 20.0)
           (-70.0 70.0)
           (-70.0 60.0)
  end
  begin
     id 8 
     name rtibia
     direction -0.34202 -0.939693 0   
     length 6.59288   
     axis 0 0 -20   XYZ
    dof rx
    limits (-10.0 170.0)
 end
 begin
     id 9 
     name rfoot
     direction -0.119193 -0.327479 0.93731   
     length 2.38061  
     axis -90 -7.62852e-016 -20   XYZ
    dof rx rz
    limits (-45.0 90.0)
           (-20.0 70.0)
  end
  begin
     id 10 
     name rtoes
     direction -1.53547e-011 -4.21827e-011 1   
     length 1.17899   
     axis -90 -7.62852e-016 -20   XYZ
    dof rx
    limits (-90.0 20.0)
  end
  begin
     id 11 
     name lowerback
     direction -0.000416114 0.999912 -0.0132284   
     length 2.12109   
     axis 0 0 0   XYZ
    dof rx ry rz
    limits (-20.0 45.0)
           (-30.0 30.0)
           (-30.0 30.0)
  end
  begin
     id 12 
     name upperback
     direction -0.00136371 0.99809 0.0617608   
     length 2.10067   
     axis 0 0 0   XYZ
    dof rx ry rz
    limits (-20.0 45.0)
           (-30.0 30.0)
           (-30.0 30.0)
  end
  begin
     id 13 
     name thorax
     direction -3.43026e-005 0.997776 0.0666515   
     length 2.10618   
     axis 0 0 0   XYZ
    dof rx ry rz
    limits (-20.0 45.0)
           (-30.0 30.0)
           (-30.0 30.0)
  end
  begin
     id 14 
     name lowerneck
     direction 0.0398646 0.998418 0.0396592   
     length 1.83817   
     axis 0 0 0   XYZ
    dof rx ry rz
    limits (-20.0 45.0)
           (-30.0 30.0)
           (-30.0 30.0)
  end
  begin
     id 15 
     name upperneck
     direction -0.0367268 0.961527 -0.272244   
     length 1.81975   
     axis 0 0 0   XYZ
    dof rx ry rz
    limits (-20.0 45.0)
           (-30.0 30.0)
           (-30.0 30.0)
  end
  begin
     id 16
     name head
     direction -0.0182665 0.99536 -0.0944669  
     length 1.86026  
     axis 0 0 0   XYZ
    dof rx ry rz
    limits (-20.0 45.0)
           (-30.0 30.0)
           (-30.0 30.0)
  end
  begin
     id 17 
     name lclavicle
     direction 0.924239 0.361045 0.124212  
     length 3.26878  
     axis 0 0 0   XYZ
    dof ry rz
    limits (-20.0 10.0)
           (0.0 20.0)
  end
  begin
     id 18 
     name lhumerus
     direction 1 -4.48968e-011 -2.56583e-027   
     length 4.58538   
     axis 180 -30 -90   XYZ
    dof rx ry rz
    limits (-60.0 90.0)
           (-90.0 90.0)
           (-90.0 90.0)
  end
  begin
     id 19
     name lradius
     direction 1 -4.4898e-011 -5.50375e-027   
     length 2.68935   
     axis 180 -30 -90   XYZ
    dof rx
    limits (-10.0 170.0)
  end
  begin
     id 20
     name lwrist
     direction 1 -4.48939e-011 -1.48955e-026   
     length 1.34468   
     axis 9.0955e-015 90 90   XYZ
    dof ry
    limits (-180.0 0.0)
 end
  begin
     id 21 
     name lhand
     direction 1 -4.48936e-011 -2.97907e-026   
     length 0.585058   
     axis 1.90115e-014 90 90   XYZ
    dof rx rz
    limits (-90.0 90.0)
           (-45.0 45.0)
  end
  begin
     id 22 
     name lfingers
     direction 1 -4.49082e-011 -5.96235e-026   
     length 0.471689   
     axis 3.80223e-014 90 90   XYZ
    dof rx
    limits (0.0 90.0)
  end
  begin
     id 23
     name lthumb
     direction 0.707107 -6.3489e-011 0.707107   
     length 0.677253   
     axis -90 45 -3.84942e-014   XYZ
    dof rx rz
    limits (-45.0 45.0)
           (-45.0 45.0)
  end
  begin
     id 24 
     name rclavicle
     direction -0.923098 0.371783 0.0983239   
     length 3.19656  
     axis 0 0 0   XYZ 
    dof ry rz
    limits (-10.0 20.0)
           (-20.0 0.0)
  end
  begin
     id 25 
     name rhumerus
     direction -1 -4.48976e-011 -2.5492e-027  
     length 4.4745   
     axis 180 30 90   XYZ
    dof rx ry rz
    limits (-90.0 60.0)
           (-90.0 90.0)
           (-90.0 90.0)
  end
  begin
     id 26 
     name rradius
     direction -1 -4.48941e-011 -4.36555e-027   
     length 2.93896   
     axis 180 30 90   XYZ
    dof rx
    limits (-10.0 170.0)
  end
  begin
     id 27 
     name rwrist
     direction -1 -4.49044e-011 -1.49032e-026   
     length 1.46948   
     axis 9.0955e-015 -90 -90   XYZ
    dof ry
    limits (-180.0 0.0)
  end
  begin
     id 28
     name rhand
     direction -1 -4.48826e-011 -2.97749e-026   
     length 0.405092   
     axis 1.90115e-014 -90 -90   XYZ
    dof rx rz
    limits (-90.0 90.0)
           (-45.0 45.0)
  end
  begin
     id 29
     name rfingers
     direction -1 -4.49209e-011 -5.96602e-026   
     length 0.326596   
     axis 3.80223e-014 -90 -90   XYZ
    dof rx
    limits (0.0 90.0)
  end
  begin
     id 30
     name rthumb
     direction -0.707107 -6.34776e-011 0.707107   
     length 0.468928   
     axis -90 -45 3.84942e-014   XYZ
    dof rx rz
    limits (-45.0 45.0)
           (-45.0 45.0)
  end
:hierarchy
  begin
    root lhipjoint rhipjoint lowerback
    lhipjoint lfemur
    lfemur ltibia
    ltibia lfoot
    lfoot ltoes
    rhipjoint rfemur
    rfemur rtibia
    rtibia rfoot
    rfoot rtoes
    lowerback upperback
    upperback thorax
    thorax lowerneck lclavicle rclavicle
    lowerneck upperneck
    upperneck head
    lclavicle lhumerus
    lhumerus lradius
    lradius lwrist
    lwrist lhand lthumb
    lhand lfingers
    rclavicle rhumerus
    rhumerus rradius
    rradius rwrist
    rwrist rhand rthumb
    rhand rfingers
  end

#!OML:ASF H:\Punching\Project 1\Capture day 1\Session 1\female.ASF
:FULLY-SPECIFIED
:DEGREES
181
root 0.200221 14.5171 2.02027 18.4235 8.76584 -1.18285
lowerback 0.0609216 0.374136 0.0828583
upperback -6.28108 0.495401 -0.435594
thorax -6.54876 0.233643 -0.529
lowerneck -7.39923 0.719418 6.64118
upperneck 22.0409 1.47447 -6.81381
head 8.10047 0.618992 -3.26681
rclavicle 6.43565e-015 4.96962e-015
rhumerus 4.31094 23.636 -78.8973
rradius 120.28
rwrist -37.2504
rhand -18.5952 -19.3658
rfingers 7.12502
rthumb 7.69591 -49.2057
lclavicle 6.43565e-015 4.96962e-015
lhumerus 14.2167 -40.7662 81.7278
lradius 136.55
lwrist 0.938323
lhand -31.8525 4.36929
lfingers 7.12502
lthumb -5.10629 34.2878
rfemur 14.1077 -10.9516 14.0831
rtibia 1.27222e-014
rfoot -19.8147 -28.4204
rtoes -12.5156
lfemur -57.6712 -3.21309 -11.2525
ltibia 51.9214
lfoot -11.5761 0.0623209
ltoes -5.43814
182
root 0.187078 14.5049 2.0144 18.5872 10.1358 -0.966651
lowerback -0.0811456 0.743931 0.250421
upperback -6.27336 0.995646 -0.55099
thorax -6.44918 0.47124 -0.769255
lowerneck -7.65072 0.0505132 5.86291
upperneck 22.004 0.48255 -5.99629
head 8.0606 0.161365 -2.94605
rclavicle -4.48756e-014 6.16232e-015
rhumerus 6.15332 22.2966 -77.8362
rradius 117.599
rwrist -35.6826
rhand -18.1129 -20.2147
rfingers 7.12502
rthumb 8.16141 -50.037
lclavicle -4.48756e-014 6.16232e-015
lhumerus 14.4603 -40.8633 81.608
lradius 136.232
lwrist 1.0578
lhand -31.4664 4.41274
lfingers 7.12502
lthumb -4.73348 34.3399
rfemur 14.4413 -12.3347 14.0813
rtibia 9.54166e-015
rfoot -20.3192 -27.5327
rtoes -11.9544
lfemur -58.2153 -3.77581 -11.4787
ltibia 51.7734
lfoot -11.1964 -0.705028
ltoes -5.22282
183
root 0.175454 14.4926 2.00731 18.7396 11.436 -0.740539
lowerback -0.175902 1.11016 0.422309
upperback -6.26118 1.49009 -0.678224
thorax -6.3671 0.705646 -1.02239
lowerneck -7.89212 -0.598878 5.10579
upperneck 21.946 -0.479431 -5.18687
head 8.03087 -0.280203 -2.63065
rclavicle -3.23646e-014 -1.05356e-014
rhumerus 8.09396 20.8804 -76.8222
rradius 114.571
rwrist -34.0442
rhand -17.3374 -21.0454
rfingers 7.12502
rthumb 8.90978 -50.8373
lclavicle -3.23646e-014 -1.05356e-014
lhumerus 14.7114 -40.8597 81.4932
lradius 135.917
lwrist 1.2577
lhand -30.9749 4.26597
lfingers 7.12502
lthumb -4.2589 34.2031
rfemur 14.7667 -13.6507 14.0451
rtibia 3.49861e-014
rfoot -20.7714 -26.6996
rtoes -11.3477
lfemur -58.7181 -4.39465 -11.68
ltibia 51.6327
lfoot -10.8221 -1.35931
ltoes -5.0189
184
root 0.165152 14.48 1.99913 18.8834 12.6587 -0.521873
lowerback -0.231202 1.47415 0.615586
upperback -6.25564 1.98144 -0.8159
thorax -6.3089 0.937156 -1.29751
lowerneck -8.09262 -1.22801 4.39347
upperneck 21.8655 -1.40877 -4.40701
head 8.0034 -0.704364 -2.33136
rclavicle 1.40889e-014 7.95139e-015
rhumerus 10.1123 19.4061 -75.8782
rradius 111.181
rwrist -32.3449
rhand -16.3331 -21.7986
rfingers 7.12502
rthumb 9.87884 -51.5468
lclavicle 1.40889e-014 7.95139e-015
lhumerus 14.9345 -40.8052 81.3968
lradius 135.583
lwrist 1.46642
lhand -30.4881 3.87894
lfingers 7.12502
lthumb -3.78882 33.825
rfemur 15.0733 -14.8888 13.9951
rtibia 5.40694e-014
rfoot -21.1462 -25.9318
rtoes -10.7665
lfemur -59.188 -5.04989 -11.8395
ltibia 51.5043
lfoot -10.4594 -1.90175
ltoes -4.84325
